<svg xmlns="http://www.w3.org/2000/svg" width="41" height="37" viewBox="0 0 41 37" fill="none"><path fill-rule="evenodd" clip-rule="evenodd" d="M30.5719 4.89999C31.2289 4.89999 31.7569 5.44001 31.7449 6.09601V7.724C31.7569 8.38 31.2289 8.923 30.5719 8.923C29.9159 8.923 29.3849 8.38 29.4019 7.724V6.09601C29.3849 5.44001 29.9159 4.89999 30.5719 4.89999ZM30.5719 10.238C31.2089 10.238 31.7309 10.746 31.7449 11.388V13.016C31.7309 13.652 31.2089 14.164 30.5719 14.164C29.9359 14.164 29.4129 13.652 29.4019 13.016V11.388C29.4129 10.746 29.9359 10.238 30.5719 10.238ZM30.5719 15.505C31.2229 15.505 31.7449 16.027 31.7449 16.675V18.308C31.7569 18.964 31.2289 19.504 30.5719 19.504C29.9159 19.504 29.3849 18.964 29.4019 18.308V16.675C29.4019 16.027 29.9249 15.505 30.5719 15.505ZM9.83093 17.624C10.4869 17.624 11.0149 18.163 11.0009 18.82V20.447C10.9899 21.089 10.4669 21.595 9.83093 21.595C9.19193 21.595 8.67194 21.089 8.65494 20.447V18.82C8.64394 18.163 9.17493 17.624 9.83093 17.624ZM30.5719 20.797C31.2229 20.797 31.7449 21.319 31.7449 21.967V23.598C31.7309 24.237 31.2089 24.748 30.5719 24.748C29.9359 24.748 29.4129 24.237 29.4019 23.598V21.967C29.4019 21.322 29.9249 20.797 30.5719 20.797ZM9.83093 22.961C10.4669 22.961 10.9899 23.47 11.0009 24.112V25.739C11.0149 26.396 10.4869 26.935 9.83093 26.935C9.17493 26.935 8.64394 26.396 8.65494 25.739V24.112C8.67194 23.47 9.19193 22.961 9.83093 22.961ZM30.5719 26.083C31.2229 26.083 31.7449 26.612 31.7449 27.259V28.89C31.7309 29.526 31.2089 30.035 30.5719 30.035C29.9359 30.035 29.4129 29.526 29.4019 28.89V27.259C29.4019 26.612 29.9249 26.083 30.5719 26.083ZM9.83093 28.202C10.4869 28.202 11.0149 28.742 11.0009 29.398V31.032C11.0009 31.676 10.4759 32.202 9.83093 32.202C9.18293 32.202 8.66094 31.676 8.65494 31.032V29.398C8.64394 28.742 9.17493 28.202 9.83093 28.202ZM30.5719 31.353C31.2289 31.353 31.7569 31.892 31.7449 32.549V34.182C31.7449 34.824 31.2229 35.352 30.5719 35.352C29.9249 35.352 29.4019 34.824 29.4019 34.182V32.549C29.3849 31.892 29.9159 31.353 30.5719 31.353ZM38.8269 1C38.6819 1 38.5369 1.028 38.3979 1.082L30.4389 4.23801L19.5989 2.52301C20.9659 4.73301 21.2329 7.45699 20.3179 9.89099L26.8849 16.462C28.2259 17.803 28.2259 19.979 26.8849 21.322C26.2149 21.993 25.3339 22.328 24.4539 22.328C23.5729 22.328 22.6959 21.993 22.0219 21.322L15.4549 14.752C14.5059 15.107 13.5069 15.289 12.5009 15.289C12.0009 15.289 11.4959 15.243 10.9979 15.152V15.161C10.9979 15.803 10.4729 16.331 9.82794 16.331C9.18094 16.331 8.65494 15.803 8.65494 15.161V14.357C7.89094 13.959 7.19794 13.451 6.58994 12.846C3.82594 10.082 3.40593 5.858 5.32593 2.642L0.763947 4.349C0.306947 4.52 0.00292969 4.95701 0.00292969 5.44601V34.83C0.00292969 35.474 0.527943 35.997 1.17294 36C1.31494 36 1.45194 35.974 1.58194 35.923L10.0549 32.762L30.3879 35.983C30.4469 35.994 30.5069 35.997 30.5669 35.997C30.7139 35.997 30.8589 35.969 30.9979 35.915L39.256 32.645C39.702 32.466 39.9969 32.037 39.9969 31.554V2.173C39.9969 1.787 39.8039 1.42299 39.4829 1.20499H39.489C39.29 1.07099 39.0599 1 38.8269 1Z" fill="#664117"></path><path fill-rule="evenodd" clip-rule="evenodd" d="M19.535 12C19.31 12.294 19.073 12.571 18.817 12.831C18.561 13.088 18.287 13.333 18 13.556L24.045 19.686C24.256 19.894 24.53 19.997 24.803 19.997C25.082 19.997 25.358 19.892 25.572 19.677C25.994 19.249 25.997 18.561 25.583 18.13L19.535 12Z" fill="#664117"></path><path fill-rule="evenodd" clip-rule="evenodd" d="M12.7994 1.00391C11.1864 1.00391 9.60247 1.61291 8.41447 2.76291C6.00247 5.10591 6.00247 8.8989 8.41447 11.2449C9.60247 12.3889 11.1864 12.9979 12.7994 12.9979C13.5984 12.9979 14.4035 12.8479 15.1705 12.5419C17.4865 11.6159 18.9965 9.42892 18.9965 7.00092C18.9965 4.57592 17.4865 2.38893 15.1705 1.45993C14.4035 1.15393 13.5984 1.00391 12.7994 1.00391Z" fill="#664117"></path></svg>