<svg xmlns="http://www.w3.org/2000/svg" width="37" height="37" viewBox="0 0 37 37" fill="none"><path fill-rule="evenodd" clip-rule="evenodd" d="M1.99701 9C0.899009 9 0 9.89599 0 10.998C0.003 12.1 0.892009 12.99 1.99701 12.997V9Z" fill="#664117"></path><path fill-rule="evenodd" clip-rule="evenodd" d="M28.0039 9V13.333H31.3539C31.9669 13.333 32.4659 13.817 32.4659 14.417V35H33.6499C35.4969 35 36.9999 33.541 36.9999 31.75V12.25C36.9999 10.452 35.4969 9 33.6499 9H28.0039Z" fill="#664117"></path><path fill-rule="evenodd" clip-rule="evenodd" d="M21.7961 0.00390625C21.0001 2.03391 22.7402 3.99792 24.8942 3.99792C25.2532 3.99792 25.6261 3.94291 26.0001 3.82291V1.00391C26.0001 0.452906 25.5091 0.0109253 24.9021 0.0109253L21.7961 0.00390625Z" fill="#664117"></path><path fill-rule="evenodd" clip-rule="evenodd" d="M5.07892 3.50553e-10C4.48192 3.50553e-10 4.00391 0.442011 4.00391 0.993011V3.79901C4.38891 3.93501 4.7789 3.99701 5.1539 3.99701C7.2719 3.99701 8.99991 2.02699 8.19891 0.00299072C4.02591 -9.2769e-06 5.34992 3.50553e-10 5.07892 3.50553e-10Z" fill="#664117"></path><path fill-rule="evenodd" clip-rule="evenodd" d="M10.559 0C11.28 3.392 8.579 6.45999 5.186 6.45999C4.797 6.45999 4.404 6.41901 4 6.33401V12.996H26V6.349C25.622 6.423 25.252 6.45999 24.885 6.45999C21.519 6.45999 18.803 3.42501 19.513 0.0180054L10.559 0Z" fill="#664117"></path><path fill-rule="evenodd" clip-rule="evenodd" d="M23.998 24.0039C23.446 24.0039 23 24.4529 23 25.0009C23 25.5519 23.446 25.9979 23.998 25.9979C24.551 25.9979 24.997 25.5519 24.997 25.0009C24.997 24.4529 24.551 24.0039 23.998 24.0039Z" fill="#664117"></path><path fill-rule="evenodd" clip-rule="evenodd" d="M24.0039 22.0239C25.8329 22.0239 27.3199 23.4599 27.3199 25.2299C27.3159 27.0009 25.8289 28.4369 24.0039 28.4369C22.1789 28.4369 20.6919 27.0009 20.6919 25.2299C20.6919 23.4599 22.1789 22.0239 24.0039 22.0239ZM0.00390625 15.0039V33.7889C0.00390625 35.5599 1.48292 36.9999 3.31592 36.9999H30.2559C30.6619 36.9999 30.9959 36.6799 30.9959 36.2839V16.3259C30.9959 15.9289 30.6619 15.6129 30.2559 15.6129H2.28391C1.46791 15.6129 0.686906 15.3999 0.00390625 15.0039Z" fill="#664117"></path></svg>